<?xml version="1.0" encoding="utf-8"?>
<!-- Uploaded to: SVG Repo, www.svgrepo.com, Generator: SVG Repo Mixer Tools -->
<svg width="800px" height="800px" viewBox="-4.68 0 110.516 110.516" xmlns="http://www.w3.org/2000/svg">
  <g id="Group_1130" data-name="Group 1130" transform="translate(-1577.726 -14075.277)">
    <path id="Path_826" data-name="Path 826" d="M-3588.2,2318.343l-9.639,8.78,8.776,11.079,10.074-11.079-9.211-8.78" transform="translate(5186 11845)" fill="#f0ae19" fill-rule="evenodd"/>
    <path id="Path_827" data-name="Path 827" d="M-3532.365,2278.337l-18.564-1.008-4.172-7.771.719-17.986,7.916-9.5h4.889l6.044,2.591,2.591,10.215,11.083,4.175,3.308,9.5Zm15.254-26.188-7.484-5.035-3.308-7.632-9.788-6.183h-5.322l-9.642,1.869-7.484,6.62-4.172,18.995.432,20.506-35.545,34.752-7.049,8.92,4.6,4.318,5.467-3.309,39.575-40.435h33.672l10.5-10.216,1.3-13.528-5.754-9.642" transform="translate(5186 11845)" fill="#f1ca25" fill-rule="evenodd"/>
    <path id="Path_828" data-name="Path 828" d="M-3523.124,2271.521c-2.991,2.992-8.755,4.6-16.367,4.6-.743,0-1.5-.016-2.281-.047a74.867,74.867,0,0,1-10.02-1.123,75.244,75.244,0,0,1-1.123-10.021c-.348-8.741,1.271-15.362,4.557-18.647a7.509,7.509,0,0,1,5.325-2.2,7.507,7.507,0,0,1,5.325,2.2,7.482,7.482,0,0,1,2.2,5.4l-.072,7.049,7.05-.071h.078a7.456,7.456,0,0,1,5.325,2.206A7.534,7.534,0,0,1-3523.124,2271.521Zm3.255-13.905a12.043,12.043,0,0,0-8.58-3.555h-.122l-2.354.028.027-2.351a12.036,12.036,0,0,0-3.555-8.705,12.029,12.029,0,0,0-8.58-3.551,12.028,12.028,0,0,0-8.58,3.551c-4.266,4.263-6.307,11.9-5.9,22.084a79.8,79.8,0,0,0,1.194,10.65l.563,3.155,3.153.566a80.368,80.368,0,0,0,10.651,1.19c.833.033,1.66.051,2.463.051,8.944,0,15.73-2.058,19.622-5.952a12.042,12.042,0,0,0,3.554-8.581,12.044,12.044,0,0,0-3.554-8.58" transform="translate(5186 11845)" fill="#070505" fill-rule="evenodd"/>
    <path id="Path_829" data-name="Path 829" d="M-3516.611,2278.034c-4.844,4.843-12.516,7.3-22.8,7.3-.971,0-1.976-.023-2.994-.067a85.323,85.323,0,0,1-12.128-1.453l-2.4-.466-1.73,1.73-8.314,8.317v-6.513l5.059-5.058,1.73-1.73-.465-2.4a85.353,85.353,0,0,1-1.454-12.128c-.513-11.8,1.919-20.479,7.236-25.794a16.618,16.618,0,0,1,11.837-4.891,16.621,16.621,0,0,1,11.838,4.891,16.693,16.693,0,0,1,4.25,7.177l.708,2.452,2.448.7a16.706,16.706,0,0,1,7.178,4.248A16.759,16.759,0,0,1-3516.611,2278.034Zm-65.217,49.754-1.646,1.642a2.3,2.3,0,0,0-3.256,0,2.3,2.3,0,0,0,0,3.256l-1.595,1.595-6.512-6.515,6.5-6.5Zm-21.164-1.632a2.288,2.288,0,0,1-.675-1.627,2.3,2.3,0,0,1,.675-1.629l12.992-12.994v6.516l-9.738,9.734a2.3,2.3,0,0,1-1.629.673A2.3,2.3,0,0,1-3602.992,2326.156Zm22.2-18.945-4.6,4.6V2305.3l4.6-4.6Zm4.6-11.119,4.608-4.6V2298l-4.608,4.607Zm62.833-44.988a21.259,21.259,0,0,0-9.163-5.424,21.229,21.229,0,0,0-5.423-9.164,21.284,21.284,0,0,0-15.093-6.239,21.29,21.29,0,0,0-15.1,6.239c-6.259,6.267-9.147,16.108-8.577,29.251a90,90,0,0,0,1.535,12.8l-41.08,41.079a6.905,6.905,0,0,0,0,9.766,6.883,6.883,0,0,0,4.884,2.026,6.854,6.854,0,0,0,3-.689l10.04,10.044,13.009-13-9.768-9.771,29.68-29.683a89.356,89.356,0,0,0,12.8,1.539c1.09.046,2.152.066,3.194.066,11.555,0,20.31-2.9,26.057-8.647a21.375,21.375,0,0,0,0-30.188" transform="translate(5186 11845)" fill="#070505" fill-rule="evenodd"/>
  </g>
</svg>